HIERARCHY
ROOT Hips
{
	OFFSET -3.958830 18.904000 13.208200
	CHANNELS 6 Xposition Yposition Zposition Zrotation Yrotation Xrotation 
	JOINT LHipJoint
	{
		OFFSET 0.000000 0.000000 0.000000
		CHANNELS 3 Zrotation Yrotation Xrotation
		JOINT LeftUpLeg
		{
			OFFSET 1.800000 -1.400000 0.085000
			CHANNELS 3 Zrotation Yrotation Xrotation
			JOINT LeftLeg
			{
				OFFSET 2.215000 -6.000000 0.000000
				CHANNELS 3 Zrotation Yrotation Xrotation
				JOINT LeftFoot
				{
					OFFSET 2.500000 -6.900000 0.000000
					CHANNELS 3 Zrotation Yrotation Xrotation
					JOINT LeftToeBase
					{
						OFFSET 0.200000 -0.500000 1.950000
						CHANNELS 3 Zrotation Yrotation Xrotation
						End Site
						{
							OFFSET 0.000000 0.000000 0.000000
						}
					}
				}
			}
		}
	}
	JOINT RHipJoint
	{
		OFFSET 0.000000 0.000000 0.000000
		CHANNELS 3 Zrotation Yrotation Xrotation
		JOINT RightUpLeg
		{
			OFFSET -1.800000 -1.400000 0.085000
			CHANNELS 3 Zrotation Yrotation Xrotation
			JOINT RightLeg
			{
				OFFSET -2.215000 -6.000000 0.000000
				CHANNELS 3 Zrotation Yrotation Xrotation
				JOINT RightFoot
				{
					OFFSET -2.500000 -6.900000 0.000000
					CHANNELS 3 Zrotation Yrotation Xrotation
					JOINT RightToeBase
					{
						OFFSET -0.200000 -0.500000 1.950000
						CHANNELS 3 Zrotation Yrotation Xrotation
						End Site
						{
							OFFSET 0.000000 0.000000 0.000000
						}
					}
				}
			}
		}
	}
	JOINT LowerBack
	{
		OFFSET 0.000000 0.000000 0.000000
		CHANNELS 3 Zrotation Yrotation Xrotation
		JOINT Spine
		{
			OFFSET -0.087000 1.940000 -0.288900
			CHANNELS 3 Zrotation Yrotation Xrotation
			JOINT Spine1
			{
				OFFSET 0.000000 1.950000 0.060000
				CHANNELS 3 Zrotation Yrotation Xrotation
				JOINT Neck
				{
					OFFSET 0.000000 0.000000 0.000000
					CHANNELS 3 Zrotation Yrotation Xrotation
					JOINT Neck1
					{
						OFFSET 0.000000 1.600000 0.340000
						CHANNELS 3 Zrotation Yrotation Xrotation
						JOINT Head
						{
							OFFSET 0.000000 1.667000 -0.240000
							CHANNELS 3 Zrotation Yrotation Xrotation
							End Site
							{
								OFFSET 0.000000 0.000000 0.000000
							}
						}
					}
				}
				JOINT LeftShoulder
				{
					OFFSET 0.000000 0.000000 0.000000
					CHANNELS 3 Zrotation Yrotation Xrotation
					JOINT LeftArm
					{
						OFFSET 2.700000 1.550000 -0.730000
						CHANNELS 3 Zrotation Yrotation Xrotation
						JOINT LeftForeArm
						{
							OFFSET 5.450000 0.000000 0.000000
							CHANNELS 3 Zrotation Yrotation Xrotation
							JOINT LeftHand
							{
								OFFSET 3.450000 0.000000 0.000000
								CHANNELS 3 Zrotation Yrotation Xrotation
								JOINT LeftHandIndex1
								{
									OFFSET 0.750000 0.000000 0.000000
									CHANNELS 3 Zrotation Yrotation Xrotation
									End Site
									{
										OFFSET 0.000000 0.000000 0.000000
									}
								}
							}
						}
					}
				}
				JOINT RightShoulder
				{
					OFFSET 0.000000 0.000000 0.000000
					CHANNELS 3 Zrotation Yrotation Xrotation
					JOINT RightArm
					{
						OFFSET -2.700000 1.550000 -0.730000
						CHANNELS 3 Zrotation Yrotation Xrotation
						JOINT RightForeArm
						{
							OFFSET -5.450000 0.000000 0.000000
							CHANNELS 3 Zrotation Yrotation Xrotation
							JOINT RightHand
							{
								OFFSET -3.450000 0.000000 0.000000
								CHANNELS 3 Zrotation Yrotation Xrotation
								JOINT RightHandIndex1
								{
									OFFSET -0.750000 0.000000 0.000000
									CHANNELS 3 Zrotation Yrotation Xrotation
									End Site
									{
										OFFSET 0.000000 0.000000 0.000000
									}
								}
							}
						}
					}
				}
			}
		}
	}
}
MOTION
Frames: 4
Frame Time: 0.016667
-0.718760 17.131170 -3.014170 -2.869871 -14.809757 -1.731887 -15.168976 12.067759 4.085621 -0.129028 -6.490714 -36.656525 5.253444 5.945352 43.433711 0.256056 6.475748 2.084459 0.180720 0.112370 0.094230 18.373047 -10.965630 2.997161 1.247626 -1.483833 -2.032147 8.690251 -5.375532 9.155579 -0.384299 -3.874268 3.070012 0.080490 0.051620 0.002940 -3.579452 -0.036001 -7.971209 2.982230 10.271041 14.718692 -4.249811 12.082375 0.138163 0.982124 -3.683618 -6.048068 -12.211858 7.103370 53.069747 6.107780 0.596550 0.183140 -28.559763 2.251311 -3.046724 -49.231348 -5.475178 -5.881439 -23.470450 -25.973971 3.424441 -3.698584 2.972470 0.237260 -0.047780 0.046900 0.065800 25.293902 4.107589 3.726322 54.491224 -3.689702 -9.370495 23.966603 12.927356 0.128091 2.559540 -1.262331 -0.070910 0.132770 -0.002640 -0.057810 
-0.723940 17.143590 -3.007730 -2.810710 -14.629660 -1.491018 -15.164961 12.074069 4.052532 -0.540789 -6.451092 -36.436521 5.734960 5.617459 42.793026 0.247395 6.314344 2.151980 0.165330 0.096600 0.074530 18.376618 -10.990391 2.996994 1.333533 -1.458748 -2.324772 8.478666 -5.301828 9.116172 -0.361265 -3.848371 3.086021 0.070880 0.066880 0.002340 -3.589148 0.011108 -7.930821 2.755197 10.322332 14.253478 -4.432629 12.053091 0.087654 0.954806 -3.930206 -6.003950 -12.549489 6.808801 51.986273 5.798870 0.170450 0.560910 -28.341538 2.435504 -3.024649 -49.254670 -5.412083 -5.880219 -23.650380 -26.274389 3.546508 -3.704558 2.985245 0.215490 -0.036490 0.029200 0.069980 25.137331 4.124903 3.750337 54.677322 -3.606092 -9.244423 24.531417 12.661688 0.111671 2.567146 -1.279514 -0.068850 0.128900 0.001570 -0.047110 
-0.731690 17.165440 -2.988960 -2.805650 -14.049222 -1.312551 -15.141739 12.081618 3.990535 -0.862933 -6.327116 -35.883382 5.695615 5.466161 41.755736 0.223050 6.102846 2.230549 0.151770 0.077630 0.065380 18.395597 -11.027076 3.019967 1.400169 -1.461911 -2.410305 8.566858 -5.292006 8.910577 -0.354768 -3.849560 3.088149 0.056920 0.068280 0.004840 -3.651113 0.087392 -7.892357 2.928575 10.310253 13.624761 -5.028595 11.994027 0.219833 1.088257 -4.130240 -6.274148 -12.866591 6.615893 51.275161 5.343720 -0.027950 0.836810 -27.820999 2.116967 -2.767605 -49.281816 -5.366582 -5.912967 -23.265994 -26.489291 3.513020 -3.702027 2.992612 0.208190 -0.033280 0.022200 0.067660 24.367680 4.496680 4.088193 55.481232 -3.731714 -9.427496 25.644466 13.042461 0.189498 2.572895 -1.296801 -0.066490 0.119230 0.006020 -0.044910 
-0.736700 17.179620 -2.955650 -2.831944 -13.685920 -1.163933 -15.118223 12.074950 3.910488 -1.256582 -6.182240 -35.323405 6.135675 5.189006 41.147317 0.206991 5.967427 2.290128 0.132600 0.052330 0.047250 18.422454 -11.064190 3.040509 1.378065 -1.535265 -2.144298 8.581126 -5.274189 8.483654 -0.352037 -3.883231 3.085281 0.045120 0.088960 0.005650 -3.727078 0.191803 -7.824050 3.041801 10.316997 12.712167 -5.746397 11.922312 0.480737 1.241910 -4.257213 -6.409305 -12.796245 6.636251 50.213151 5.410220 -0.050750 1.164220 -27.170839 2.112028 -2.597141 -49.261476 -5.344259 -5.846516 -22.828424 -26.632256 3.470860 -3.711828 2.994000 0.198850 -0.020460 0.005040 0.069550 23.411168 4.427608 4.298511 55.976369 -3.752025 -9.598477 27.583612 14.316402 0.488397 2.566577 -1.324460 -0.074220 0.120320 0.016200 -0.041020 
